<?xml version="1.0" standalone="no"?>
<!DOCTYPE svg PUBLIC "-//W3C//DTD SVG 20010904//EN"
 "http://www.w3.org/TR/2001/REC-SVG-20010904/DTD/svg10.dtd">
<svg version="1.0" xmlns="http://www.w3.org/2000/svg"
 width="828.000000pt" height="482.000000pt" viewBox="0 0 828.000000 482.000000"
 preserveAspectRatio="xMidYMid meet">

<g transform="translate(0.000000,482.000000) scale(0.100000,-0.100000)"
fill="#000000" stroke="none">
<path d="M0 4580 l0 -240 1075 0 1075 0 0 -90 0 -90 33 -20 c24 -15 50 -20
110 -20 l77 0 0 -70 0 -70 528 -2 527 -3 3 -57 3 -58 -528 -2 -528 -3 0 -230
0 -230 525 -5 525 -5 3 -57 3 -58 -528 -2 -528 -3 0 -205 0 -205 523 -3 522
-2 0 -60 0 -60 -525 0 -525 0 0 -70 0 -70 -81 0 c-77 0 -115 -10 -131 -34 -4
-6 -8 -50 -8 -98 l0 -88 -765 0 -765 0 0 -655 0 -655 -310 0 -310 0 0 -530 0
-530 4140 0 4140 0 0 2410 0 2410 -4140 0 -4140 0 0 -240z m5131 151 c79 -22
184 -47 232 -56 91 -17 172 -42 224 -68 40 -21 111 -128 118 -180 3 -23 4
-537 3 -1142 l-3 -1100 -132 -3 -133 -3 -2 1073 -3 1073 -55 16 c-30 9 -134
36 -230 59 -96 23 -186 47 -199 52 l-24 9 6 137 c5 149 10 172 36 172 10 0 83
-18 162 -39z m-1501 -228 c36 -8 184 -41 330 -74 146 -33 348 -79 450 -102
l185 -43 3 -1252 2 -1252 60 0 60 0 0 -180 0 -180 -175 0 -175 0 0 60 0 60
-300 0 -300 0 0 -535 0 -535 300 0 300 0 0 180 0 180 -120 0 -120 0 0 180 0
180 235 0 235 0 0 -60 0 -60 60 0 60 0 0 -420 0 -420 -60 0 -60 0 0 -60 0 -60
-535 0 -535 0 0 60 0 60 -60 0 -60 0 0 775 0 775 60 0 60 0 0 60 0 60 417 0
c229 0 414 3 411 6 -3 3 -62 25 -129 49 -68 23 -162 57 -209 74 -47 18 -155
56 -240 86 -210 73 -285 101 -299 109 -8 5 -11 307 -11 1157 l0 1150 48 -6
c26 -4 76 -13 112 -22z m3804 -349 c21 -20 21 -115 1 -153 -18 -35 -38 -41
-142 -41 -70 0 -86 3 -103 20 -11 11 -20 25 -20 30 0 13 -74 13 -120 0 -63
-17 -70 -29 -84 -123 -7 -48 -19 -93 -26 -102 -26 -32 -86 -35 -631 -35 l-546
0 -6 45 c-12 81 -59 75 552 77 l546 3 6 65 c6 75 16 98 59 134 37 30 80 43
178 52 61 6 72 10 72 25 0 18 10 19 124 19 100 0 128 -3 140 -16z m752 -767
c28 -30 34 -45 34 -79 0 -49 -24 -91 -66 -119 -53 -35 -144 -15 -181 41 -41
59 -24 161 31 189 12 6 50 9 85 8 59 -3 66 -6 97 -40z m-276 -57 l0 -60 -1074
0 -1074 0 -3 33 c-2 17 -3 44 -1 60 l3 27 1075 0 1074 0 0 -60z m-1012 -465
c12 -9 40 -48 64 -88 23 -40 48 -77 56 -84 80 -66 102 -95 102 -133 l0 -38
-81 -4 -80 -3 -38 80 c-21 44 -50 99 -64 123 l-27 42 -535 0 -535 0 0 60 0 60
558 0 c486 0 560 -2 580 -15z m448 -181 c33 -22 54 -64 54 -109 0 -26 -9 -45
-34 -72 -30 -33 -39 -37 -94 -41 -56 -4 -63 -2 -86 23 -29 32 -43 101 -30 154
17 67 119 91 190 45z m-5746 -609 c0 -33 2 -35 35 -35 l35 0 0 -460 0 -460
-35 0 c-33 0 -35 -2 -35 -35 l0 -35 -315 0 -315 0 0 35 c0 33 -2 35 -35 35
l-35 0 0 460 0 460 35 0 c33 0 35 2 35 35 l0 35 315 0 315 0 0 -35z m850 0 c0
-33 2 -35 35 -35 l35 0 0 -105 0 -105 -100 0 -100 0 0 35 0 35 -180 0 -180 0
0 -110 0 -110 245 0 245 0 0 -35 c0 -33 2 -35 35 -35 l35 0 0 -245 0 -245 -35
0 c-33 0 -35 -2 -35 -35 l0 -35 -315 0 -315 0 0 35 c0 33 -2 35 -35 35 l-35 0
0 105 0 105 105 0 105 0 0 -35 0 -35 180 0 180 0 0 105 0 105 -250 0 -250 0 0
35 c0 33 -2 35 -35 35 l-35 0 0 250 0 250 35 0 c33 0 35 2 35 35 l0 35 315 0
315 0 0 -35z m920 -70 l0 -105 -140 0 -140 0 0 -425 0 -425 -100 0 -100 0 -2
423 -3 422 -142 3 -143 3 0 104 0 105 385 0 385 0 0 -105z m2152 -907 c3 -29
7 -33 36 -36 l32 -3 0 -480 0 -479 -100 0 -100 0 0 205 0 205 -175 0 -175 0 0
-205 0 -205 -100 0 -100 0 0 480 0 480 35 0 c33 0 35 2 35 35 l0 35 304 0 305
0 3 -32z m898 -73 l0 -105 -135 0 -135 0 0 -410 0 -410 -100 0 -100 0 0 410 0
410 -140 0 -140 0 0 105 0 105 375 0 375 0 0 -105z m830 0 l0 -105 -275 0
-275 0 0 -100 0 -100 175 0 175 0 0 -105 0 -105 -175 0 -175 0 0 -100 0 -100
275 0 275 0 0 -105 0 -105 -340 0 -340 0 0 35 c0 33 -2 35 -35 35 l-35 0 0
445 0 445 35 0 c33 0 35 2 35 35 l0 35 340 0 340 0 0 -105z m350 -560 c0 -8 5
-15 10 -15 6 0 10 -18 10 -40 0 -39 -1 -40 -35 -40 -24 0 -35 5 -35 15 0 12
-14 15 -65 15 l-65 0 0 -35 0 -35 90 0 c73 0 90 -3 90 -15 0 -8 5 -15 10 -15
17 0 13 -169 -4 -186 -17 -17 -226 -21 -226 -4 0 6 -7 10 -15 10 -11 0 -15 11
-15 40 0 39 1 40 35 40 19 0 35 -4 35 -10 0 -6 28 -10 65 -10 l65 0 0 35 0 35
-80 0 c-109 0 -120 11 -120 120 0 64 3 80 15 80 8 0 15 7 15 15 0 12 19 15
110 15 91 0 110 -3 110 -15z"/>
<path d="M1110 1580 l0 -320 180 0 180 0 0 320 0 320 -180 0 -180 0 0 -320z"/>
<path d="M5040 820 l0 -100 175 0 175 0 0 100 0 100 -175 0 -175 0 0 -100z"/>
<path d="M3365 3930 c-3 -5 1 -10 9 -10 9 0 16 5 16 10 0 6 -4 10 -9 10 -6 0
-13 -4 -16 -10z"/>
<path d="M620 3550 c0 -71 2 -130 4 -130 2 0 24 9 49 20 71 31 150 9 187 -53
25 -40 25 -72 2 -116 -33 -65 -138 -93 -192 -51 -46 36 -50 29 -50 -85 l0
-105 550 0 550 0 0 120 0 120 -410 0 -410 0 0 60 0 60 410 0 410 0 0 145 0
145 -550 0 -550 0 0 -130z"/>
</g>
</svg>
