<?xml version="1.0" standalone="no"?>
<!DOCTYPE svg PUBLIC "-//W3C//DTD SVG 20010904//EN"
 "http://www.w3.org/TR/2001/REC-SVG-20010904/DTD/svg10.dtd">
<svg version="1.0" xmlns="http://www.w3.org/2000/svg"
 width="475.000000pt" height="280.000000pt" viewBox="0 0 475.000000 280.000000"
 preserveAspectRatio="xMidYMid meet">

<g transform="translate(0.000000,280.000000) scale(0.100000,-0.100000)"
fill="#000000" stroke="none">
<path d="M2807 2713 c-4 -21 -7 -61 -7 -90 l0 -52 48 -14 c26 -8 91 -25 145
-38 l97 -23 0 -613 0 -613 80 0 80 0 0 637 c0 630 0 637 -21 681 -24 48 -59
74 -122 90 -23 6 -89 22 -147 36 -58 14 -114 28 -126 32 -18 5 -22 0 -27 -33z"/>
<path d="M1972 1948 l3 -661 170 -59 c94 -33 201 -71 238 -84 121 -42 117 -43
-140 -44 l-243 0 0 -35 c0 -33 -2 -35 -35 -35 l-35 0 0 -440 0 -440 35 0 c33
0 35 -2 35 -35 l0 -35 305 0 305 0 0 35 c0 33 2 35 35 35 l35 0 0 240 0 240
-35 0 c-33 0 -35 2 -35 35 l0 35 -135 0 -135 0 0 -105 0 -105 70 0 71 0 -3
-103 -3 -102 -170 0 -170 0 -3 308 -2 307 175 0 175 0 0 -35 0 -35 100 0 100
0 0 99 0 100 -32 3 -33 3 -3 718 c-1 394 -5 717 -8 717 -4 0 -104 23 -223 50
-236 55 -329 75 -379 84 l-32 6 2 -662z"/>
<path d="M0 1565 l0 -935 170 0 170 0 0 375 0 375 435 0 435 0 0 54 c0 62 5
66 81 66 l49 0 0 40 0 40 300 0 300 0 0 35 0 35 -300 0 -300 0 0 120 0 120
300 0 300 0 0 29 c0 21 -6 30 -22 35 -13 3 -148 6 -300 6 l-278 0 0 135 0 135
300 0 300 0 0 30 0 30 -300 0 -300 0 0 40 c0 40 0 40 -40 40 -21 0 -51 5 -65
12 -22 10 -25 17 -25 65 l0 53 -605 0 -605 0 0 -935z m968 478 l3 -83 -236 0
-235 0 0 -35 0 -35 235 0 235 0 0 -70 0 -70 -315 0 -315 0 0 60 c0 55 10 75
25 50 11 -17 61 -11 89 11 67 53 -11 154 -89 113 l-25 -13 0 80 0 79 313 -2
312 -3 3 -82z"/>
<path d="M4090 2390 c0 -5 -15 -10 -32 -10 -90 0 -145 -39 -150 -105 l-3 -40
-317 -3 -318 -2 0 -30 0 -30 334 0 c255 0 336 3 344 13 5 6 13 33 16 59 8 55
18 65 74 74 33 5 43 3 48 -10 5 -13 21 -16 74 -16 76 0 80 4 80 71 l0 39 -75
0 c-43 0 -75 -4 -75 -10z"/>
<path d="M4552 1964 c-27 -19 -30 -72 -4 -103 46 -56 132 -24 132 49 0 45 -26
70 -75 70 -17 0 -41 -7 -53 -16z"/>
<path d="M3274 1946 c-3 -8 -4 -23 -2 -33 3 -17 34 -18 621 -21 l618 -2 -3 32
-3 33 -613 3 c-527 2 -613 0 -618 -12z"/>
<path d="M3270 1630 l0 -30 312 -2 311 -3 35 -67 c36 -68 36 -68 79 -68 38 0
43 3 43 23 0 13 -12 34 -26 48 -15 13 -42 48 -61 77 l-34 52 -329 0 -330 0 0
-30z"/>
<path d="M4103 1560 c-35 -14 -42 -76 -14 -118 13 -21 80 -17 103 6 55 55 -15
142 -89 112z"/>
<path d="M540 1200 c0 -13 -7 -20 -20 -20 -19 0 -20 -7 -20 -260 0 -253 1
-260 20 -260 13 0 20 -7 20 -20 0 -19 7 -20 180 -20 173 0 180 1 180 20 0 13
7 20 20 20 19 0 20 7 20 260 0 253 -1 260 -20 260 -13 0 -20 7 -20 20 0 19 -7
20 -180 20 -173 0 -180 -1 -180 -20z m280 -275 l0 -185 -105 0 -105 0 0 178
c0 98 3 182 7 185 3 4 51 7 105 7 l98 0 0 -185z"/>
<path d="M1020 1200 c0 -13 -7 -20 -20 -20 -19 0 -20 -7 -20 -140 0 -133 1
-140 20 -140 13 0 20 -7 20 -20 0 -19 7 -20 145 -20 l145 0 0 -60 0 -60 -105
0 c-98 0 -105 1 -105 20 0 18 -7 20 -60 20 l-60 0 0 -60 c0 -53 2 -60 20 -60
13 0 20 -7 20 -20 0 -19 7 -20 180 -20 173 0 180 1 180 20 0 13 7 20 20 20 19
0 20 7 20 140 0 133 -1 140 -20 140 -13 0 -20 7 -20 20 0 19 -7 20 -140 20
l-140 0 0 65 0 65 105 0 c98 0 105 -1 105 -20 0 -18 7 -20 55 -20 l55 0 0 55
c0 44 -3 55 -16 55 -9 0 -18 9 -21 20 -5 19 -14 20 -184 20 -172 0 -179 -1
-179 -20z"/>
<path d="M1470 1165 l0 -55 80 0 80 0 0 -245 0 -245 60 0 60 0 0 245 0 245 80
0 80 0 0 55 0 55 -220 0 -220 0 0 -55z"/>
<path d="M2790 640 c0 -13 -7 -20 -20 -20 -20 0 -20 -7 -20 -270 l0 -270 55 0
55 0 0 115 0 115 105 0 105 0 0 -115 0 -115 55 0 55 0 0 270 c0 263 0 270 -20
270 -13 0 -20 7 -20 20 0 19 -7 20 -175 20 -168 0 -175 -1 -175 -20z m278
-152 l3 -58 -106 0 -105 0 0 53 c0 30 3 57 7 61 4 4 50 5 103 4 l95 -3 3 -57z"/>
<path d="M3230 605 l0 -54 78 -3 77 -3 3 -233 2 -232 55 0 55 0 0 235 0 235
75 0 75 0 0 55 0 55 -210 0 -210 0 0 -55z"/>
<path d="M3740 640 c0 -13 -7 -20 -20 -20 -19 0 -20 -7 -20 -250 0 -243 1
-250 20 -250 13 0 20 -7 20 -20 0 -19 7 -20 195 -20 l195 0 0 55 0 54 -157 3
-158 3 -3 58 -3 57 101 0 100 0 0 60 0 60 -100 0 -101 0 3 58 3 57 158 3 157
3 0 54 0 55 -195 0 c-188 0 -195 -1 -195 -20z"/>
<path d="M4196 274 c-3 -9 -6 -31 -6 -49 0 -57 7 -65 61 -65 43 0 49 -2 49
-21 0 -20 -3 -21 -56 -15 -53 6 -55 6 -52 -16 3 -21 8 -23 73 -23 l70 0 0 55
0 55 -52 3 c-49 3 -53 5 -53 28 0 21 5 24 35 24 19 0 35 -4 35 -10 0 -5 9 -10
20 -10 20 0 25 15 14 44 -9 23 -129 23 -138 0z"/>
</g>
</svg>
